<?xml version="1.0" standalone="no"?>
<!DOCTYPE svg PUBLIC "-//W3C//DTD SVG 20010904//EN"
 "http://www.w3.org/TR/2001/REC-SVG-20010904/DTD/svg10.dtd">
<svg version="1.0" xmlns="http://www.w3.org/2000/svg"
 width="700.000000pt" height="700.000000pt" viewBox="0 0 700.000000 700.000000"
 preserveAspectRatio="xMidYMid meet">
<metadata>
Created by potrace 1.11, written by Peter Selinger 2001-2013
</metadata>
<g transform="translate(0.000000,700.000000) scale(0.100000,-0.100000)"
fill="#000000" stroke="none">
<path d="M4100 6893 c-102 -50 -444 -215 -505 -243 -33 -15 -132 -63 -220
-105 -348 -168 -559 -270 -780 -375 -105 -50 -177 -85 -505 -243 -80 -38 -190
-91 -245 -117 -55 -26 -167 -80 -250 -120 -82 -40 -190 -91 -240 -115 -49 -23
-162 -77 -250 -120 -88 -43 -209 -101 -270 -130 -614 -292 -692 -331 -711
-361 -18 -27 -19 -92 -19 -1799 1 -2003 -9 -1798 87 -1847 65 -33 470 -228
473 -228 2 0 114 -54 250 -120 136 -66 248 -120 250 -120 2 0 106 -49 230
-110 125 -60 229 -110 230 -110 2 0 99 -47 216 -104 118 -57 252 -121 299
-144 81 -38 244 -116 500 -240 72 -34 128 -55 150 -55 35 0 59 10 375 163 94
45 206 99 250 120 44 21 145 69 225 107 323 156 428 207 495 238 39 18 147 70
240 115 94 45 215 104 270 130 55 26 159 76 230 110 72 34 175 84 230 110 55
26 168 80 250 120 83 40 195 94 250 120 55 26 172 82 260 125 195 94 352 169
465 223 410 194 519 251 534 279 13 26 15 233 15 1781 0 1022 -4 1764 -9 1783
-14 49 28 25 -504 283 -120 58 -220 106 -221 106 -2 0 -92 43 -201 96 -110 53
-226 109 -259 124 -33 15 -145 69 -250 120 -104 51 -235 114 -290 140 -55 26
-152 72 -215 102 -63 31 -158 76 -210 101 -52 25 -180 86 -285 137 -222 108
-251 114 -335 73z m248 -285 c83 -40 152 -75 152 -78 0 -7 -295 -150 -308
-150 -5 0 -78 33 -163 74 l-154 74 155 76 c85 42 157 76 160 76 3 0 74 -32
158 -72z m-696 -227 c24 -10 138 -65 253 -121 116 -56 227 -108 247 -115 46
-17 62 -13 198 53 58 27 176 84 264 126 87 42 159 76 161 76 4 0 170 -78 360
-170 83 -40 197 -95 255 -122 58 -28 188 -91 290 -140 102 -50 196 -94 210
-100 28 -11 49 2 -248 -142 -132 -64 -162 -91 -162 -146 0 -69 19 -85 208
-177 97 -47 188 -90 202 -95 27 -11 36 -7 -286 -160 -123 -59 -361 -173 -569
-273 -66 -32 -169 -81 -230 -110 -60 -29 -173 -83 -250 -120 -77 -37 -194 -93
-260 -125 -66 -31 -230 -110 -365 -175 -437 -210 -515 -247 -537 -256 -22 -8
-56 6 -443 194 -149 72 -174 71 -345 -12 -344 -168 -395 -191 -418 -182 -12 5
-103 48 -202 96 -99 48 -216 104 -260 125 -44 21 -147 71 -230 110 -82 40
-210 101 -282 136 -73 34 -133 65 -133 68 0 4 33 21 73 40 272 126 322 154
338 188 33 71 0 131 -96 177 -22 11 -102 49 -177 85 -76 36 -138 68 -138 71 0
3 37 23 83 44 45 21 150 71 232 111 83 40 197 95 255 122 58 28 150 72 205 98
55 26 168 80 250 120 256 124 436 211 530 255 253 120 703 337 845 407 63 31
118 57 122 57 3 1 26 -8 50 -18z m2684 -728 l159 -77 -160 -77 -160 -77 -105
53 c-58 28 -129 63 -159 76 l-54 24 159 77 c87 42 160 77 160 78 1 0 73 -35
160 -77z m309 -444 l0 -174 -165 -82 c-91 -45 -170 -82 -175 -82 -7 -1 -11 60
-10 176 l0 177 25 13 c113 59 307 150 315 149 6 -2 10 -70 10 -177z m-585
-159 l0 -61 -97 -45 c-113 -53 -266 -126 -473 -227 -80 -38 -190 -91 -245
-117 -192 -91 -311 -148 -518 -249 -115 -55 -210 -101 -212 -101 -2 0 -88 -41
-192 -91 -103 -50 -237 -115 -298 -144 -60 -29 -173 -83 -250 -120 -77 -37
-169 -80 -205 -97 -36 -17 -68 -32 -72 -35 -5 -2 -8 23 -8 56 l0 61 108 51
c59 28 168 81 242 117 184 88 363 174 495 237 61 29 182 87 270 130 88 43 201
97 250 120 129 61 274 130 480 230 99 47 238 114 309 148 71 34 190 92 265
129 75 36 139 67 144 67 4 1 7 -26 7 -59z m-5010 -111 l75 -36 -45 -21 c-25
-11 -96 -45 -159 -75 -101 -48 -118 -54 -140 -44 -14 7 -75 36 -136 65 -60 30
-121 59 -135 64 -23 10 -11 17 135 88 l160 77 85 -41 c47 -22 119 -57 160 -77z
m5595 -1158 c0 -544 -2 -991 -5 -993 -9 -6 -100 -48 -105 -48 -3 0 -5 445 -5
990 l0 990 48 24 c26 14 52 25 57 26 7 0 10 -333 10 -989z m-6027 805 l72 -36
0 -181 c0 -99 -3 -178 -7 -176 -32 18 -327 157 -334 157 -10 0 -10 0 -10 165
0 69 0 143 0 164 l1 40 103 -49 c57 -26 136 -64 175 -84z m5493 2 c32 -24 95
-26 138 -4 17 9 35 15 39 12 4 -2 7 -447 7 -988 l0 -983 -99 -51 c-78 -39
-103 -58 -118 -85 -18 -33 -18 -6 -18 1066 0 879 3 1095 13 1076 6 -13 24 -33
38 -43z m-282 -1198 l0 -1231 -97 -48 c-53 -27 -106 -51 -117 -55 l-21 -6 1
1232 0 1232 110 52 c61 29 113 53 117 53 4 1 7 -553 7 -1229z m-4659 933 c102
-50 226 -109 275 -133 50 -24 173 -83 275 -133 102 -49 227 -109 278 -133 l92
-43 0 -60 0 -60 -92 43 c-51 24 -160 76 -243 116 -82 40 -199 96 -260 125 -60
29 -173 83 -250 120 -77 37 -178 85 -225 107 -47 22 -88 46 -92 52 -4 6 -7 34
-6 63 l2 52 30 -14 c17 -7 114 -53 216 -102z m4190 -1156 l0 -1233 -112 -54
c-61 -30 -114 -53 -116 -50 -3 3 -5 556 -6 1230 l0 1225 109 56 c61 31 113 57
118 58 4 0 7 -554 7 -1232z m-467 -204 c-1 -670 -2 -1227 -3 -1238 0 -13 -14
-26 -43 -39 -23 -11 -73 -34 -111 -53 -37 -18 -70 -33 -72 -33 -2 0 -4 555 -4
1234 l0 1233 118 56 c64 31 117 56 117 56 0 1 -1 -547 -2 -1216z m-4491 1111
l53 -26 -1 -981 c-1 -540 -2 -987 -3 -994 -1 -7 -22 -1 -56 15 l-55 27 0 60
c-1 66 -1 1441 0 1738 0 103 2 187 5 187 2 0 28 -12 57 -26z m2548 -46 c82
-40 150 -76 150 -79 0 -4 -9 -11 -20 -14 -12 -4 -82 -36 -156 -72 l-134 -64
-136 65 c-75 36 -139 66 -143 66 -4 0 -13 6 -20 13 -10 10 17 26 136 84 81 39
153 72 160 72 7 1 80 -31 163 -71z m-1920 -14 c52 -26 155 -75 228 -110 l132
-63 0 -581 c0 -319 -2 -580 -4 -580 -2 0 -45 20 -95 45 -109 54 -143 60 -192
33 -60 -33 -76 -95 -40 -153 13 -23 48 -45 131 -85 62 -30 132 -64 154 -75
l41 -20 3 -528 c1 -291 -1 -526 -5 -524 -23 14 -447 217 -453 217 -4 0 -7 44
-7 98 -1 138 -8 149 -133 212 l-100 50 0 990 c0 545 1 990 3 990 1 0 25 -9 54
-20 33 -12 63 -17 82 -14 29 6 79 46 82 65 2 10 5 25 9 37 1 4 2 19 2 35 1 15
4 27 7 27 4 0 49 -21 101 -46z m3395 -1296 l0 -1233 -105 -52 c-58 -29 -110
-52 -116 -52 -9 -1 -12 323 -12 1229 l1 1231 111 54 c61 29 113 54 116 54 3 1
5 -554 5 -1231z m-1957 981 c70 -34 142 -68 160 -75 18 -8 36 -25 40 -37 4
-12 7 -94 6 -182 -1 -132 -3 -159 -15 -157 -8 2 -83 37 -168 78 -84 41 -156
74 -160 74 -4 0 -7 81 -7 180 0 99 4 180 9 180 5 0 65 -28 135 -61z m789 -115
l-2 -175 -25 -15 c-36 -20 -314 -153 -317 -150 -1 1 -3 80 -5 176 l-2 175 165
82 c90 45 169 82 176 82 9 1 11 -44 10 -175z m-1457 60 c69 -33 162 -78 208
-99 l82 -38 0 -94 c0 -141 8 -154 129 -211 55 -25 101 -53 103 -61 2 -9 3
-455 3 -991 -1 -849 -3 -975 -15 -973 -8 1 -35 9 -59 18 -81 30 -147 -13 -158
-103 -3 -29 -7 -52 -8 -52 -1 0 -105 49 -231 110 l-229 109 -1 525 -1 524 34
-14 c18 -8 65 -30 105 -49 81 -40 96 -42 144 -19 64 30 85 119 42 169 -13 14
-84 54 -158 90 -74 36 -142 69 -150 74 -13 7 -15 84 -16 589 l-1 580 26 -11
c14 -7 82 -39 151 -73z m2159 -1149 l0 -1234 -112 -54 c-62 -30 -114 -51 -117
-47 -3 5 -5 559 -5 1232 l0 1223 115 57 c63 31 116 57 117 57 1 1 2 -555 2
-1234z m-469 -282 c0 -1004 -2 -1095 -16 -1066 -29 58 -110 73 -183 34 -12 -7
-25 -11 -27 -8 -9 8 -5 1970 3 1978 5 5 46 27 93 50 88 43 120 67 120 94 0 8
2 15 5 15 3 0 5 -494 5 -1097z m-816 -218 c1 -543 -1 -988 -4 -990 -13 -7
-110 49 -111 64 -1 21 -1 1954 0 1964 1 4 27 -6 58 -21 l57 -29 0 -988z m351
48 l0 -987 -54 -28 c-30 -16 -55 -27 -57 -25 -3 2 -6 1434 -4 1883 l0 100 43
21 c23 12 49 22 57 22 13 1 15 -114 15 -986z m3620 310 l0 -178 -70 -35 c-82
-41 -273 -130 -278 -130 -2 0 -3 80 -3 178 l1 177 165 82 c91 45 170 82 175
82 7 1 10 -62 10 -176z m-585 -401 l0 -58 -147 -72 c-82 -39 -204 -98 -273
-130 -118 -56 -176 -84 -545 -262 -82 -40 -199 -96 -260 -125 -223 -107 -672
-322 -960 -460 -77 -37 -187 -90 -245 -116 -58 -27 -113 -54 -122 -59 -16 -9
-18 -4 -18 51 l0 60 143 68 c78 38 210 101 292 141 141 68 207 99 458 219 93
45 193 93 502 241 61 29 184 88 275 132 188 90 384 185 680 327 113 55 208
100 213 100 4 1 7 -25 7 -57z m-5633 -131 c43 -21 120 -58 171 -82 l92 -43 0
-178 c0 -98 -4 -178 -9 -178 -5 0 -83 36 -175 80 -117 57 -166 86 -167 98 -1
23 -1 203 0 280 1 34 3 62 5 62 3 0 40 -17 83 -39z m703 -579 c329 -158 428
-206 495 -237 39 -18 159 -76 268 -128 l197 -96 0 -61 0 -61 -27 15 c-31 16
-255 123 -408 196 -94 45 -152 73 -490 235 -77 37 -163 78 -191 91 l-51 23 -1
60 -1 61 32 -14 c18 -8 97 -45 177 -84z m1395 -427 c77 -37 142 -69 144 -71 5
-5 8 -335 3 -350 -2 -7 -46 10 -110 41 -59 28 -136 65 -172 82 l-65 31 0 180
-1 181 31 -14 c16 -7 93 -43 170 -80z m733 -85 l1 -181 -157 -74 c-86 -42
-165 -80 -174 -85 -17 -10 -18 1 -18 172 l0 183 173 82 c94 45 173 83 173 83
1 0 2 -81 2 -180z"/>
</g>
</svg>
